<?xml version="1.0" encoding="UTF-8" standalone="no"?>
<!DOCTYPE svg PUBLIC "-//W3C//DTD SVG 1.1//EN"
 "http://www.w3.org/Graphics/SVG/1.1/DTD/svg11.dtd">
<!-- Generated by graphviz version 2.40.1 (20161225.0304)
 -->
<!-- Title: BlockFoundationConceptMap Pages: 1 -->
<svg width="588pt" height="410pt"
 viewBox="0.00 0.00 588.43 410.20" xmlns="http://www.w3.org/2000/svg" xmlns:xlink="http://www.w3.org/1999/xlink">
<g id="graph0" class="graph" transform="scale(1 1) rotate(0) translate(4 406.1989)">
<title>BlockFoundationConceptMap</title>
<polygon fill="#ffffff" stroke="transparent" points="-4,4 -4,-406.1989 584.4273,-406.1989 584.4273,4 -4,4"/>
<text text-anchor="middle" x="290.2137" y="-385.5989" font-family="Akkurat" font-size="14.00" fill="#000000">Block foundation mind map</text>
<!-- Housing -->
<g id="node1" class="node">
<title>Housing</title>
<g id="a_node1"><a xlink:href="https://en.wikipedia.org/wiki/Category:Happiness" xlink:title="Housing">
<ellipse fill="#f0f0ff" fill-opacity="0.627451" stroke="#000000" stroke-width="0" cx="283.3287" cy="-236.4543" rx="49.8054" ry="19.4695"/>
<text text-anchor="middle" x="283.3287" y="-231.6543" font-family="akkurat" font-size="16.00" fill="#ff0000">Housing</text>
</a>
</g>
</g>
<!-- Trust -->
<g id="node2" class="node">
<title>Trust</title>
<ellipse fill="#f0f0ff" fill-opacity="0.627451" stroke="#000000" stroke-width="0" cx="369.0137" cy="-238.4145" rx="27" ry="18"/>
<text text-anchor="middle" x="369.0137" y="-234.8145" font-family="akkurat" font-size="12.00" fill="#4b0082">Trust</text>
</g>
<!-- Housing&#45;&#45;Trust -->
<g id="edge1" class="edge">
<title>Housing&#45;&#45;Trust</title>
<path fill="none" stroke="#000000" stroke-width="5" d="M333.1721,-237.5946C336.1174,-237.662 339.0173,-237.7283 341.8142,-237.7923"/>
</g>
<!-- Community -->
<g id="node3" class="node">
<title>Community</title>
<ellipse fill="#f0f0ff" fill-opacity="0.627451" stroke="#000000" stroke-width="0" cx="325.4084" cy="-91.0437" rx="46.6875" ry="18"/>
<text text-anchor="middle" x="325.4084" y="-87.4437" font-family="akkurat" font-size="12.00" fill="#4b0082">Community</text>
</g>
<!-- Housing&#45;&#45;Community -->
<g id="edge2" class="edge">
<title>Housing&#45;&#45;Community</title>
<path fill="none" stroke="#000000" stroke-width="5" d="M288.9166,-217.1449C297.099,-188.8696 312.2305,-136.5813 320.1948,-109.0597"/>
</g>
<!-- Capital -->
<g id="node4" class="node">
<title>Capital</title>
<ellipse fill="#f0f0ff" fill-opacity="0.627451" stroke="#000000" stroke-width="0" cx="179.5213" cy="-231.9612" rx="32.2147" ry="18"/>
<text text-anchor="middle" x="179.5213" y="-228.3612" font-family="akkurat" font-size="12.00" fill="#4b0082">Capital</text>
</g>
<!-- Housing&#45;&#45;Capital -->
<g id="edge3" class="edge">
<title>Housing&#45;&#45;Capital</title>
<path fill="none" stroke="#000000" stroke-width="5" d="M233.8572,-234.3131C226.442,-233.9921 218.9604,-233.6683 212.0196,-233.3679"/>
</g>
<!-- Land -->
<g id="node5" class="node">
<title>Land</title>
<ellipse fill="#f0f0ff" fill-opacity="0.627451" stroke="#000000" stroke-width="0" cx="277.2199" cy="-359.053" rx="27" ry="18"/>
<text text-anchor="middle" x="277.2199" y="-355.453" font-family="akkurat" font-size="12.00" fill="#4b0082">Land</text>
</g>
<!-- Housing&#45;&#45;Land -->
<g id="edge4" class="edge">
<title>Housing&#45;&#45;Land</title>
<path fill="none" stroke="#000000" stroke-width="5" d="M282.3608,-255.8805C281.1967,-279.2419 279.2582,-318.1457 278.1236,-340.9167"/>
</g>
<!-- Access -->
<g id="node6" class="node">
<title>Access</title>
<ellipse fill="#f0f0ff" fill-opacity="0.627451" stroke="#000000" stroke-width="0" cx="116.7455" cy="-359.3989" rx="31.8405" ry="18"/>
<text text-anchor="middle" x="116.7455" y="-355.7989" font-family="akkurat" font-size="12.00" fill="#4b0082">Access</text>
</g>
<!-- Housing&#45;&#45;Access -->
<g id="edge5" class="edge">
<title>Housing&#45;&#45;Access</title>
<path fill="none" stroke="#000000" stroke-width="5" d="M260.166,-253.5492C227.267,-277.8299 167.5691,-321.8892 136.5913,-344.7519"/>
</g>
<!-- Capital&#45;&#45;Access -->
<g id="edge11" class="edge">
<title>Capital&#45;&#45;Access</title>
<path fill="none" stroke="#0000ff" d="M170.9242,-249.4137C158.9699,-273.6815 137.4463,-317.3752 125.4402,-341.7482"/>
</g>
<!-- Transactional -->
<g id="node7" class="node">
<title>Transactional</title>
<ellipse fill="#f0f0ff" fill-opacity="0.627451" stroke="#000000" stroke-width="0" cx="408.0959" cy="-36.154" rx="34.2486" ry="18"/>
<text text-anchor="middle" x="408.0959" y="-33.754" font-family="akkurat" font-size="8.00" fill="#ff0000">Transactional</text>
</g>
<!-- Transactional&#45;&#45;Trust -->
<g id="edge6" class="edge">
<title>Transactional&#45;&#45;Trust</title>
<path fill="none" stroke="#0000ff" d="M404.6276,-54.1033C397.2111,-92.4857 379.8838,-182.1589 372.4742,-220.5055"/>
</g>
<!-- Transactional&#45;&#45;Community -->
<g id="edge7" class="edge">
<title>Transactional&#45;&#45;Community</title>
<path fill="none" stroke="#0000ff" d="M386.8018,-50.2895C375.2219,-57.9765 360.8731,-67.5015 348.9598,-75.4098"/>
</g>
<!-- Landtrust -->
<g id="node8" class="node">
<title>Landtrust</title>
<ellipse fill="#f0f0ff" fill-opacity="0.627451" stroke="#000000" stroke-width="0" cx="419.8691" cy="-359.2816" rx="27" ry="18"/>
<text text-anchor="middle" x="419.8691" y="-356.8816" font-family="akkurat" font-size="8.00" fill="#ff0000">Landtrust</text>
</g>
<!-- Landtrust&#45;&#45;Trust -->
<g id="edge8" class="edge">
<title>Landtrust&#45;&#45;Trust</title>
<path fill="none" stroke="#0000ff" d="M412.4743,-341.7065C402.8325,-318.7909 386.0637,-278.9368 376.4175,-256.0108"/>
</g>
<!-- Landtrust&#45;&#45;Land -->
<g id="edge9" class="edge">
<title>Landtrust&#45;&#45;Land</title>
<path fill="none" stroke="#0000ff" d="M392.7021,-359.238C367.3194,-359.1974 329.6357,-359.137 304.2858,-359.0963"/>
</g>
<!-- Exploitation -->
<g id="node9" class="node">
<title>Exploitation</title>
<ellipse fill="#f0f0ff" fill-opacity="0.627451" stroke="#000000" stroke-width="0" cx="139.7749" cy="-121.5692" rx="31.6847" ry="18"/>
<text text-anchor="middle" x="139.7749" y="-119.1692" font-family="akkurat" font-size="8.00" fill="#ff0000">Exploitation</text>
</g>
<!-- Exploitation&#45;&#45;Capital -->
<g id="edge10" class="edge">
<title>Exploitation&#45;&#45;Capital</title>
<path fill="none" stroke="#0000ff" d="M146.1609,-139.3056C153.578,-159.9059 165.7409,-193.6873 173.1512,-214.2688"/>
</g>
<!-- Buy -->
<g id="node11" class="node">
<title>Buy</title>
<ellipse fill="#f0f0ff" fill-opacity="0.627451" stroke="#000000" stroke-width="0" cx="49.5838" cy="-42.3752" rx="27" ry="18"/>
<text text-anchor="middle" x="49.5838" y="-40.5752" font-family="akkurat" font-size="6.00" fill="#4b0082">Buy</text>
</g>
<!-- Exploitation&#45;&#45;Buy -->
<g id="edge14" class="edge">
<title>Exploitation&#45;&#45;Buy</title>
<path fill="none" stroke="#00ffff" stroke-width=".8" d="M122.3852,-106.2998C106.1073,-92.0066 81.9659,-70.8089 66.0083,-56.797"/>
</g>
<!-- Rent -->
<g id="node12" class="node">
<title>Rent</title>
<ellipse fill="#f0f0ff" fill-opacity="0.627451" stroke="#000000" stroke-width="0" cx="27" cy="-251.5243" rx="27" ry="18"/>
<text text-anchor="middle" x="27" y="-249.7243" font-family="akkurat" font-size="6.00" fill="#4b0082">Rent</text>
</g>
<!-- Exploitation&#45;&#45;Rent -->
<g id="edge15" class="edge">
<title>Exploitation&#45;&#45;Rent</title>
<path fill="none" stroke="#00ffff" stroke-width=".8" d="M125.7199,-137.7653C103.8731,-162.9403 62.0471,-211.1382 40.5271,-235.9365"/>
</g>
<!-- Genossenschaft -->
<g id="node13" class="node">
<title>Genossenschaft</title>
<ellipse fill="#f0f0ff" fill-opacity="0.627451" stroke="#000000" stroke-width="0" cx="229.6086" cy="-18" rx="29.6845" ry="18"/>
<text text-anchor="middle" x="229.6086" y="-16.2" font-family="akkurat" font-size="6.00" fill="#4b0082">Genossenschaft</text>
</g>
<!-- Exploitation&#45;&#45;Genossenschaft -->
<g id="edge16" class="edge">
<title>Exploitation&#45;&#45;Genossenschaft</title>
<path fill="none" stroke="#00ffff" stroke-width=".8" d="M153.8115,-105.3865C170.6882,-85.9293 198.838,-53.4754 215.6706,-34.069"/>
</g>
<!-- Blockchain -->
<g id="node10" class="node">
<title>Blockchain</title>
<ellipse fill="#f0f0ff" fill-opacity="0.627451" stroke="#000000" stroke-width="0" cx="456.4021" cy="-189.4514" rx="27" ry="18"/>
<text text-anchor="middle" x="456.4021" y="-187.6514" font-family="akkurat" font-size="6.00" fill="#4b0082">Blockchain</text>
</g>
<!-- Blockchain&#45;&#45;Trust -->
<g id="edge12" class="edge">
<title>Blockchain&#45;&#45;Trust</title>
<path fill="none" stroke="#00ffff" stroke-width=".8" d="M435.6922,-201.055C421.8628,-208.8035 403.739,-218.9582 389.8777,-226.7245"/>
</g>
<!-- Blockchain&#45;&#45;Transactional -->
<g id="edge13" class="edge">
<title>Blockchain&#45;&#45;Transactional</title>
<path fill="none" stroke="#00ffff" stroke-width=".8" d="M450.7662,-171.5662C441.4581,-142.0274 422.9803,-83.3891 413.6959,-53.9253"/>
</g>
<!-- Radical markets -->
<g id="node14" class="node">
<title>Radical markets</title>
<ellipse fill="#f0f0ff" fill-opacity="0.627451" stroke="#000000" stroke-width="0" cx="548.4065" cy="-70.3578" rx="27" ry="18"/>
<text text-anchor="middle" x="548.4065" y="-69.1578" font-family="akkurat" font-size="4.00" fill="#4b0082">Radical markets</text>
</g>
<!-- Blockchain&#45;&#45;Radical markets -->
<g id="edge18" class="edge">
<title>Blockchain&#45;&#45;Radical markets</title>
<path fill="none" stroke="#ff0000" stroke-width=".6" d="M468.8102,-173.3899C486.3699,-150.6601 518.2886,-109.3434 535.9011,-86.5452"/>
</g>
<!-- Web3 -->
<g id="node15" class="node">
<title>Web3</title>
<ellipse fill="#f0f0ff" fill-opacity="0.627451" stroke="#000000" stroke-width="0" cx="553.4273" cy="-308.1271" rx="27" ry="18"/>
<text text-anchor="middle" x="553.4273" y="-306.9271" font-family="akkurat" font-size="4.00" fill="#4b0082">Web3</text>
</g>
<!-- Blockchain&#45;&#45;Web3 -->
<g id="edge19" class="edge">
<title>Blockchain&#45;&#45;Web3</title>
<path fill="none" stroke="#ff0000" stroke-width=".6" d="M469.4873,-205.4565C488.0052,-228.1066 521.6658,-269.2783 540.2395,-291.9965"/>
</g>
<!-- Genossenschaft&#45;&#45;Community -->
<g id="edge17" class="edge">
<title>Genossenschaft&#45;&#45;Community</title>
<path fill="none" stroke="#00ffff" stroke-width=".8" d="M248.0797,-32.0836C264.1738,-44.3546 287.5045,-62.1435 304.3254,-74.9688"/>
</g>
<!-- GenossenschaftFund -->
<g id="node16" class="node">
<title>GenossenschaftFund</title>
<ellipse fill="#f0f0ff" fill-opacity="0.627451" stroke="#000000" stroke-width="0" cx="244.1932" cy="-140.9225" rx="27" ry="18"/>
<text text-anchor="middle" x="244.1932" y="-139.7225" font-family="akkurat" font-size="4.00" fill="#4b0082">GenossenschaftFund</text>
</g>
<!-- GenossenschaftFund&#45;&#45;Community -->
<g id="edge20" class="edge">
<title>GenossenschaftFund&#45;&#45;Community</title>
<path fill="none" stroke="#ff0000" stroke-width=".6" d="M264.2688,-128.5929C275.1666,-121.9 288.7415,-113.5629 300.33,-106.4458"/>
</g>
<!-- GenossenschaftFund&#45;&#45;Capital -->
<g id="edge21" class="edge">
<title>GenossenschaftFund&#45;&#45;Capital</title>
<path fill="none" stroke="#ff0000" stroke-width=".6" d="M232.6311,-157.1984C221.0049,-173.5646 203.1655,-198.6773 191.4208,-215.2103"/>
</g>
<!-- GenossenschaftFund&#45;&#45;Genossenschaft -->
<g id="edge22" class="edge">
<title>GenossenschaftFund&#45;&#45;Genossenschaft</title>
<path fill="none" stroke="#ff0000" stroke-width=".6" d="M242.0412,-122.7849C239.2837,-99.5443 234.5311,-59.4884 231.7694,-36.2121"/>
</g>
</g>
</svg>
