<?xml version="1.0" encoding="UTF-8" standalone="no"?>
<!DOCTYPE svg PUBLIC "-//W3C//DTD SVG 1.1//EN"
 "http://www.w3.org/Graphics/SVG/1.1/DTD/svg11.dtd">
<!-- Generated by graphviz version 2.40.1 (20161225.0304)
 -->
<!-- Title: BlockFoundationConceptMap Pages: 1 -->
<svg width="419pt" height="304pt"
 viewBox="0.00 0.00 419.08 304.38" xmlns="http://www.w3.org/2000/svg" xmlns:xlink="http://www.w3.org/1999/xlink">
<g id="graph0" class="graph" transform="scale(1 1) rotate(0) translate(4 300.3758)">
<title>BlockFoundationConceptMap</title>
<polygon fill="#ffffff" stroke="transparent" points="-4,4 -4,-300.3758 415.0769,-300.3758 415.0769,4 -4,4"/>
<text text-anchor="middle" x="205.5385" y="-279.7758" font-family="Akkurat" font-size="14.00" fill="#000000">Block foundation mind map</text>
<!-- Housing -->
<g id="node1" class="node">
<title>Housing</title>
<g id="a_node1"><a xlink:href="https://en.wikipedia.org/wiki/Category:Happiness" xlink:title="Housing">
<ellipse fill="#f0f0ff" fill-opacity="0.627451" stroke="#000000" stroke-width="0" cx="255.0276" cy="-158.7147" rx="49.8054" ry="19.4695"/>
<text text-anchor="middle" x="255.0276" y="-153.9147" font-family="akkurat" font-size="16.00" fill="#ff0000">Housing</text>
</a>
</g>
</g>
<!-- Trust -->
<g id="node2" class="node">
<title>Trust</title>
<ellipse fill="#f0f0ff" fill-opacity="0.627451" stroke="#000000" stroke-width="0" cx="310.7383" cy="-93.83" rx="27" ry="18"/>
<text text-anchor="middle" x="310.7383" y="-90.23" font-family="akkurat" font-size="12.00" fill="#4b0082">Trust</text>
</g>
<!-- Housing&#45;&#45;Trust -->
<g id="edge1" class="edge">
<title>Housing&#45;&#45;Trust</title>
<path fill="none" stroke="#000000" stroke-width="5" d="M270.8431,-140.2949C279.0783,-130.7036 289.0522,-119.0873 296.9672,-109.8689"/>
</g>
<!-- Community -->
<g id="node3" class="node">
<title>Community</title>
<ellipse fill="#f0f0ff" fill-opacity="0.627451" stroke="#000000" stroke-width="0" cx="197.2333" cy="-79.8639" rx="46.6875" ry="18"/>
<text text-anchor="middle" x="197.2333" y="-76.2639" font-family="akkurat" font-size="12.00" fill="#4b0082">Community</text>
</g>
<!-- Housing&#45;&#45;Community -->
<g id="edge2" class="edge">
<title>Housing&#45;&#45;Community</title>
<path fill="none" stroke="#000000" stroke-width="5" d="M241.3312,-140.0282C231.8513,-127.0944 219.3202,-109.9978 210.0396,-97.3359"/>
</g>
<!-- Capital -->
<g id="node4" class="node">
<title>Capital</title>
<ellipse fill="#f0f0ff" fill-opacity="0.627451" stroke="#000000" stroke-width="0" cx="184.6998" cy="-201.5118" rx="32.2147" ry="18"/>
<text text-anchor="middle" x="184.6998" y="-197.9118" font-family="akkurat" font-size="12.00" fill="#4b0082">Capital</text>
</g>
<!-- Housing&#45;&#45;Capital -->
<g id="edge3" class="edge">
<title>Housing&#45;&#45;Capital</title>
<path fill="none" stroke="#000000" stroke-width="5" d="M228.0382,-175.1388C221.0657,-179.3818 213.6393,-183.901 206.9399,-187.9779"/>
</g>
<!-- Land -->
<g id="node5" class="node">
<title>Land</title>
<ellipse fill="#f0f0ff" fill-opacity="0.627451" stroke="#000000" stroke-width="0" cx="333.5176" cy="-192.0525" rx="27" ry="18"/>
<text text-anchor="middle" x="333.5176" y="-188.4525" font-family="akkurat" font-size="12.00" fill="#4b0082">Land</text>
</g>
<!-- Housing&#45;&#45;Land -->
<g id="edge4" class="edge">
<title>Housing&#45;&#45;Land</title>
<path fill="none" stroke="#000000" stroke-width="5" d="M288.7699,-173.0464C296.0827,-176.1524 303.6555,-179.3689 310.4454,-182.2528"/>
</g>
<!-- Access -->
<g id="node6" class="node">
<title>Access</title>
<ellipse fill="#f0f0ff" fill-opacity="0.627451" stroke="#000000" stroke-width="0" cx="241.8237" cy="-236.6969" rx="31.8405" ry="18"/>
<text text-anchor="middle" x="241.8237" y="-233.0969" font-family="akkurat" font-size="12.00" fill="#4b0082">Access</text>
</g>
<!-- Housing&#45;&#45;Access -->
<g id="edge5" class="edge">
<title>Housing&#45;&#45;Access</title>
<path fill="none" stroke="#000000" stroke-width="5" d="M251.7637,-177.9912C249.656,-190.4397 246.9322,-206.5263 244.869,-218.7114"/>
</g>
<!-- Capital&#45;&#45;Access -->
<g id="edge11" class="edge">
<title>Capital&#45;&#45;Access</title>
<path fill="none" stroke="#0000ff" d="M206.622,-215.0146C211.0269,-217.7278 215.6548,-220.5783 220.0544,-223.2883"/>
</g>
<!-- Transactional -->
<g id="node7" class="node">
<title>Transactional</title>
<ellipse fill="#f0f0ff" fill-opacity="0.627451" stroke="#000000" stroke-width="0" cx="258.3088" cy="-33.3319" rx="34.2486" ry="18"/>
<text text-anchor="middle" x="258.3088" y="-30.9319" font-family="akkurat" font-size="8.00" fill="#ff0000">Transactional</text>
</g>
<!-- Transactional&#45;&#45;Trust -->
<g id="edge6" class="edge">
<title>Transactional&#45;&#45;Trust</title>
<path fill="none" stroke="#0000ff" d="M272.6354,-49.8633C280.2758,-58.6795 289.6256,-69.4682 297.1512,-78.1519"/>
</g>
<!-- Transactional&#45;&#45;Community -->
<g id="edge7" class="edge">
<title>Transactional&#45;&#45;Community</title>
<path fill="none" stroke="#0000ff" d="M238.6479,-48.3111C232.2315,-53.1996 225.0782,-58.6495 218.5463,-63.626"/>
</g>
<!-- Landtrust -->
<g id="node8" class="node">
<title>Landtrust</title>
<ellipse fill="#f0f0ff" fill-opacity="0.627451" stroke="#000000" stroke-width="0" cx="384.0769" cy="-130.5426" rx="27" ry="18"/>
<text text-anchor="middle" x="384.0769" y="-128.1426" font-family="akkurat" font-size="8.00" fill="#ff0000">Landtrust</text>
</g>
<!-- Landtrust&#45;&#45;Trust -->
<g id="edge8" class="edge">
<title>Landtrust&#45;&#45;Trust</title>
<path fill="none" stroke="#0000ff" d="M362.4696,-119.7261C353.0051,-114.9883 341.9204,-109.4394 332.4447,-104.696"/>
</g>
<!-- Landtrust&#45;&#45;Land -->
<g id="edge9" class="edge">
<title>Landtrust&#45;&#45;Land</title>
<path fill="none" stroke="#0000ff" d="M371.0566,-146.3829C363.5665,-155.4954 354.1817,-166.9128 346.6695,-176.052"/>
</g>
<!-- Exploitation -->
<g id="node9" class="node">
<title>Exploitation</title>
<ellipse fill="#f0f0ff" fill-opacity="0.627451" stroke="#000000" stroke-width="0" cx="105.0207" cy="-182.3542" rx="31.6847" ry="18"/>
<text text-anchor="middle" x="105.0207" y="-179.9542" font-family="akkurat" font-size="8.00" fill="#ff0000">Exploitation</text>
</g>
<!-- Exploitation&#45;&#45;Capital -->
<g id="edge10" class="edge">
<title>Exploitation&#45;&#45;Capital</title>
<path fill="none" stroke="#0000ff" d="M134.6902,-189.4878C141.2386,-191.0622 148.1799,-192.7311 154.7397,-194.3084"/>
</g>
<!-- Buy -->
<g id="node11" class="node">
<title>Buy</title>
<ellipse fill="#f0f0ff" fill-opacity="0.627451" stroke="#000000" stroke-width="0" cx="27" cy="-160.0895" rx="27" ry="18"/>
<text text-anchor="middle" x="27" y="-158.2895" font-family="akkurat" font-size="6.00" fill="#4b0082">Buy</text>
</g>
<!-- Exploitation&#45;&#45;Buy -->
<g id="edge14" class="edge">
<title>Exploitation&#45;&#45;Buy</title>
<path fill="none" stroke="#00ffff" stroke-width=".8" d="M76.4117,-174.1901C68.4095,-171.9065 59.7773,-169.4431 52.0015,-167.2241"/>
</g>
<!-- Rent -->
<g id="node12" class="node">
<title>Rent</title>
<ellipse fill="#f0f0ff" fill-opacity="0.627451" stroke="#000000" stroke-width="0" cx="65.2457" cy="-253.5758" rx="27" ry="18"/>
<text text-anchor="middle" x="65.2457" y="-251.7758" font-family="akkurat" font-size="6.00" fill="#4b0082">Rent</text>
</g>
<!-- Exploitation&#45;&#45;Rent -->
<g id="edge15" class="edge">
<title>Exploitation&#45;&#45;Rent</title>
<path fill="none" stroke="#00ffff" stroke-width=".8" d="M95.3923,-199.595C89.1387,-210.7928 81.0213,-225.3277 74.7854,-236.4938"/>
</g>
<!-- Genossenschaft -->
<g id="node13" class="node">
<title>Genossenschaft</title>
<ellipse fill="#f0f0ff" fill-opacity="0.627451" stroke="#000000" stroke-width="0" cx="94.9737" cy="-54.9053" rx="29.6845" ry="18"/>
<text text-anchor="middle" x="94.9737" y="-53.1053" font-family="akkurat" font-size="6.00" fill="#4b0082">Genossenschaft</text>
</g>
<!-- Exploitation&#45;&#45;Genossenschaft -->
<g id="edge16" class="edge">
<title>Exploitation&#45;&#45;Genossenschaft</title>
<path fill="none" stroke="#00ffff" stroke-width=".8" d="M103.6025,-164.3642C101.6985,-140.2114 98.3341,-97.5322 96.4172,-73.2164"/>
</g>
<!-- Blockchain -->
<g id="node10" class="node">
<title>Blockchain</title>
<ellipse fill="#f0f0ff" fill-opacity="0.627451" stroke="#000000" stroke-width="0" cx="325.4326" cy="-18" rx="27" ry="18"/>
<text text-anchor="middle" x="325.4326" y="-16.2" font-family="akkurat" font-size="6.00" fill="#4b0082">Blockchain</text>
</g>
<!-- Blockchain&#45;&#45;Trust -->
<g id="edge12" class="edge">
<title>Blockchain&#45;&#45;Trust</title>
<path fill="none" stroke="#00ffff" stroke-width=".8" d="M321.9503,-35.9707C319.6249,-47.971 316.5774,-63.6977 314.2466,-75.7256"/>
</g>
<!-- Blockchain&#45;&#45;Transactional -->
<g id="edge13" class="edge">
<title>Blockchain&#45;&#45;Transactional</title>
<path fill="none" stroke="#00ffff" stroke-width=".8" d="M299.6728,-23.8839C296.4193,-24.627 293.0623,-25.3938 289.7334,-26.1542"/>
</g>
<!-- Genossenschaft&#45;&#45;Community -->
<g id="edge17" class="edge">
<title>Genossenschaft&#45;&#45;Community</title>
<path fill="none" stroke="#00ffff" stroke-width=".8" d="M122.6466,-61.6594C133.4119,-64.2869 145.9483,-67.3467 157.6365,-70.1994"/>
</g>
</g>
</svg>
